<?xml version="1.0" encoding="iso-8859-1"?>
<!-- Generator: Adobe Illustrator 19.0.0, SVG Export Plug-In . SVG Version: 6.00 Build 0)  -->
<svg version="1.1" id="Layer_1" xmlns="http://www.w3.org/2000/svg" xmlns:xlink="http://www.w3.org/1999/xlink" x="0px" y="0px"
	 viewBox="0 0 512 512" style="enable-background:new 0 0 512 512;" xml:space="preserve">
<g transform="translate(1 1)">
	<g>
		<polygon style="fill:#FFA800;" points="41.667,41.667 152.6,41.667 152.6,7.533 41.667,7.533 		"/>
		<polygon style="fill:#FFA800;" points="357.4,41.667 468.333,41.667 468.333,7.533 357.4,7.533 		"/>
	</g>
	<g>
		<polygon style="fill:#FFE100;" points="24.6,212.333 169.667,212.333 169.667,41.667 24.6,41.667 		"/>
		<polygon style="fill:#FFE100;" points="340.333,212.333 485.4,212.333 485.4,41.667 340.333,41.667 		"/>
	</g>
	<g>
		<polygon style="fill:#FFA800;" points="24.6,331.8 169.667,331.8 169.667,212.333 24.6,212.333 		"/>
		<polygon style="fill:#FFA800;" points="340.333,331.8 485.4,331.8 485.4,212.333 340.333,212.333 		"/>
	</g>
	<g>
		<polygon style="fill:#FFE100;" points="24.6,383 485.4,383 485.4,331.8 24.6,331.8 		"/>
		<polygon style="fill:#FFE100;" points="24.6,502.467 485.4,502.467 485.4,383 24.6,383 		"/>
	</g>
	<g>
		<polygon style="fill:#FFA800;" points="169.667,383 340.333,383 340.333,212.333 169.667,212.333 		"/>
		<polygon style="fill:#FFA800;" points="340.333,212.333 169.667,212.333 255,135.533 		"/>
	</g>
	<path style="fill:#FFE100;" d="M289.133,272.067c0-18.773-15.36-34.133-34.133-34.133s-34.133,15.36-34.133,34.133
		S236.227,306.2,255,306.2S289.133,290.84,289.133,272.067L289.133,272.067z"/>
	<g>
		<path style="fill:#FFA800;" d="M297.667,502.467h-85.333V487.96c0-23.04,10.24-44.373,28.16-58.88L255,417.133l14.507,11.093
			c17.92,14.507,28.16,35.84,28.16,58.88V502.467z"/>
		<path style="fill:#FFA800;" d="M161.133,502.467H75.8V487.96c0-23.04,10.24-44.373,28.16-58.88l14.507-11.947l14.507,11.093
			c17.92,14.507,28.16,35.84,28.16,58.88V502.467z"/>
		<path style="fill:#FFA800;" d="M434.2,502.467h-85.333V487.96c0-23.04,10.24-44.373,28.16-58.88l14.507-11.947l14.507,11.093
			c17.92,14.507,28.16,35.84,28.16,58.88V502.467z"/>
	</g>
	<g>
		<path style="fill:#0C0C0C;" d="M502.467,511H7.533C2.413,511-1,507.587-1,502.467c0-5.12,3.413-8.533,8.533-8.533h494.933
			c5.12,0,8.533,3.413,8.533,8.533C511,507.587,507.587,511,502.467,511z"/>
		<path style="fill:#0C0C0C;" d="M485.4,511H24.6c-5.12,0-8.533-3.413-8.533-8.533V383c0-5.12,3.413-8.533,8.533-8.533h460.8
			c5.12,0,8.533,3.413,8.533,8.533v25.6c0,5.12-3.413,8.533-8.533,8.533s-8.533-3.413-8.533-8.533v-17.067H33.133v102.4h443.733
			v-17.067c0-5.12,3.413-8.533,8.533-8.533s8.533,3.413,8.533,8.533v25.6C493.933,507.587,490.52,511,485.4,511z"/>
		<path style="fill:#0C0C0C;" d="M493.933,442.733c0,5.12-3.413,8.533-8.533,8.533s-8.533-3.413-8.533-8.533
			c0-5.12,3.413-8.533,8.533-8.533S493.933,437.613,493.933,442.733"/>
		<path style="fill:#0C0C0C;" d="M297.667,511h-85.333c-5.12,0-8.533-3.413-8.533-8.533V487.96c0-25.6,11.093-49.493,31.573-65.707
			l14.507-11.093c3.413-2.56,7.68-2.56,10.24,0l14.507,11.093c20.48,16.213,31.573,40.107,31.573,65.707v14.507
			C306.2,507.587,302.787,511,297.667,511z M220.867,493.933h68.267v-5.973c0-20.48-9.387-39.253-25.6-52.053L255,429.08
			l-8.533,6.827c-16.213,12.8-25.6,31.573-25.6,52.053V493.933z"/>
		<path style="fill:#0C0C0C;" d="M161.133,511H75.8c-5.12,0-8.533-3.413-8.533-8.533V487.96c0-25.6,11.093-49.493,31.573-65.707
			l14.507-11.093c3.413-2.56,7.68-2.56,10.24,0l14.507,11.093c20.48,16.213,31.573,40.107,31.573,65.707v14.507
			C169.667,507.587,166.253,511,161.133,511z M84.333,493.933H152.6v-5.973c0-20.48-9.387-39.253-25.6-52.053l-8.533-6.827
			l-8.533,6.827c-16.213,12.8-25.6,31.573-25.6,52.053V493.933z"/>
		<path style="fill:#0C0C0C;" d="M434.2,511h-85.333c-5.12,0-8.533-3.413-8.533-8.533V487.96c0-25.6,11.093-49.493,31.573-65.707
			l14.507-11.093c3.413-2.56,7.68-2.56,10.24,0l14.507,11.093c20.48,16.213,31.573,40.107,31.573,65.707v14.507
			C442.733,507.587,439.32,511,434.2,511z M357.4,493.933h68.267v-5.973c0-20.48-9.387-39.253-25.6-52.053l-8.533-6.827L383,435.907
			c-16.213,12.8-25.6,31.573-25.6,52.053V493.933z"/>
		<path style="fill:#0C0C0C;" d="M255,508.44c-5.12,0-8.533-3.413-8.533-8.533v-23.04c0-5.12,3.413-8.533,8.533-8.533
			s8.533,3.413,8.533,8.533v23.04C263.533,504.173,260.12,508.44,255,508.44z"/>
		<path style="fill:#0C0C0C;" d="M118.467,508.44c-5.12,0-8.533-3.413-8.533-8.533v-23.04c0-5.12,3.413-8.533,8.533-8.533
			s8.533,3.413,8.533,8.533v23.04C127,504.173,123.587,508.44,118.467,508.44z"/>
		<path style="fill:#0C0C0C;" d="M391.533,508.44c-5.12,0-8.533-3.413-8.533-8.533v-23.04c0-5.12,3.413-8.533,8.533-8.533
			s8.533,3.413,8.533,8.533v23.04C400.067,504.173,396.653,508.44,391.533,508.44z"/>
		<path style="fill:#0C0C0C;" d="M169.667,340.333H24.6c-5.12,0-8.533-3.413-8.533-8.533V212.333c0-5.12,3.413-8.533,8.533-8.533
			h145.067c5.12,0,8.533,3.413,8.533,8.533V331.8C178.2,336.92,174.787,340.333,169.667,340.333z M33.133,323.267h128v-102.4h-128
			V323.267z"/>
		<path style="fill:#0C0C0C;" d="M485.4,340.333H340.333c-5.12,0-8.533-3.413-8.533-8.533V212.333c0-5.12,3.413-8.533,8.533-8.533
			H485.4c5.12,0,8.533,3.413,8.533,8.533V331.8C493.933,336.92,490.52,340.333,485.4,340.333z M348.867,323.267h128v-102.4h-128
			V323.267z"/>
		<path style="fill:#0C0C0C;" d="M485.4,391.533H24.6c-5.12,0-8.533-3.413-8.533-8.533v-51.2c0-5.12,3.413-8.533,8.533-8.533h460.8
			c5.12,0,8.533,3.413,8.533,8.533V383C493.933,388.12,490.52,391.533,485.4,391.533z M33.133,374.467h443.733v-34.133H33.133
			V374.467z"/>
		<path style="fill:#0C0C0C;" d="M340.333,391.533H169.667c-5.12,0-8.533-3.413-8.533-8.533V212.333c0-5.12,3.413-8.533,8.533-8.533
			h170.667c5.12,0,8.533,3.413,8.533,8.533V383C348.867,388.12,345.453,391.533,340.333,391.533z M178.2,374.467h153.6v-153.6H178.2
			V374.467z"/>
		<path style="fill:#0C0C0C;" d="M255,314.733c-23.893,0-42.667-19.627-42.667-42.667S231.107,229.4,255,229.4
			s42.667,18.773,42.667,42.667C297.667,295.107,278.893,314.733,255,314.733z M255,246.467c-14.507,0-25.6,11.093-25.6,25.6
			c0,13.653,11.947,25.6,25.6,25.6s25.6-11.947,25.6-25.6C280.6,257.56,269.507,246.467,255,246.467z"/>
		<path style="fill:#0C0C0C;" d="M75.8,340.333c-5.12,0-8.533-3.413-8.533-8.533v-42.667c0-5.12,3.413-8.533,8.533-8.533
			c5.12,0,8.533,3.413,8.533,8.533V331.8C84.333,336.92,80.92,340.333,75.8,340.333z"/>
		<path style="fill:#0C0C0C;" d="M109.933,340.333c-5.12,0-8.533-3.413-8.533-8.533v-42.667c0-5.12,3.413-8.533,8.533-8.533
			s8.533,3.413,8.533,8.533V331.8C118.467,336.92,115.053,340.333,109.933,340.333z"/>
		<path style="fill:#0C0C0C;" d="M400.067,340.333c-5.12,0-8.533-3.413-8.533-8.533v-42.667c0-5.12,3.413-8.533,8.533-8.533
			s8.533,3.413,8.533,8.533V331.8C408.6,336.92,405.187,340.333,400.067,340.333z"/>
		<path style="fill:#0C0C0C;" d="M434.2,340.333c-5.12,0-8.533-3.413-8.533-8.533v-42.667c0-5.12,3.413-8.533,8.533-8.533
			c5.12,0,8.533,3.413,8.533,8.533V331.8C442.733,336.92,439.32,340.333,434.2,340.333z"/>
		<path style="fill:#0C0C0C;" d="M75.8,220.867c-5.12,0-8.533-3.413-8.533-8.533v-128c0-5.12,3.413-8.533,8.533-8.533
			c5.12,0,8.533,3.413,8.533,8.533v128C84.333,217.453,80.92,220.867,75.8,220.867z"/>
		<path style="fill:#0C0C0C;" d="M109.933,220.867c-5.12,0-8.533-3.413-8.533-8.533v-128c0-5.12,3.413-8.533,8.533-8.533
			s8.533,3.413,8.533,8.533v128C118.467,217.453,115.053,220.867,109.933,220.867z"/>
		<path style="fill:#0C0C0C;" d="M400.067,220.867c-5.12,0-8.533-3.413-8.533-8.533v-128c0-5.12,3.413-8.533,8.533-8.533
			s8.533,3.413,8.533,8.533v128C408.6,217.453,405.187,220.867,400.067,220.867z"/>
		<path style="fill:#0C0C0C;" d="M434.2,220.867c-5.12,0-8.533-3.413-8.533-8.533v-128c0-5.12,3.413-8.533,8.533-8.533
			c5.12,0,8.533,3.413,8.533,8.533v128C442.733,217.453,439.32,220.867,434.2,220.867z"/>
		<path style="fill:#0C0C0C;" d="M340.333,220.867H169.667c-3.413,0-6.827-2.56-7.68-5.12c-0.853-3.413,0-6.827,2.56-9.387
			l85.333-76.8c3.413-2.56,8.533-2.56,11.093,0l85.333,76.8c2.56,2.56,3.413,5.973,2.56,9.387
			C347.16,218.307,343.747,220.867,340.333,220.867z M191.853,203.8h126.293L255,146.627L191.853,203.8z"/>
		<path style="fill:#0C0C0C;" d="M255,144.067c-5.12,0-8.533-3.413-8.533-8.533V75.8c0-5.12,3.413-8.533,8.533-8.533
			s8.533,3.413,8.533,8.533v59.733C263.533,140.653,260.12,144.067,255,144.067z"/>
		<path style="fill:#0C0C0C;" d="M272.067,101.4h-34.133c-5.12,0-8.533-3.413-8.533-8.533s3.413-8.533,8.533-8.533h34.133
			c5.12,0,8.533,3.413,8.533,8.533S277.187,101.4,272.067,101.4z"/>
		<path style="fill:#0C0C0C;" d="M169.667,220.867H24.6c-5.12,0-8.533-3.413-8.533-8.533V152.6c0-5.12,3.413-8.533,8.533-8.533
			s8.533,3.413,8.533,8.533v51.2h128V50.2h-128v34.133c0,5.12-3.413,8.533-8.533,8.533s-8.533-3.413-8.533-8.533V41.667
			c0-5.12,3.413-8.533,8.533-8.533h145.067c5.12,0,8.533,3.413,8.533,8.533v170.667C178.2,217.453,174.787,220.867,169.667,220.867z
			"/>
		<path style="fill:#0C0C0C;" d="M33.133,118.467c0,5.12-3.413,8.533-8.533,8.533s-8.533-3.413-8.533-8.533s3.413-8.533,8.533-8.533
			S33.133,113.347,33.133,118.467"/>
		<path style="fill:#0C0C0C;" d="M485.4,220.867H340.333c-5.12,0-8.533-3.413-8.533-8.533V41.667c0-5.12,3.413-8.533,8.533-8.533
			H485.4c5.12,0,8.533,3.413,8.533,8.533v170.667C493.933,217.453,490.52,220.867,485.4,220.867z M348.867,203.8h128V50.2h-128
			V203.8z"/>
		<path style="fill:#0C0C0C;" d="M152.6,50.2H41.667c-5.12,0-8.533-3.413-8.533-8.533V7.533c0-5.12,3.413-8.533,8.533-8.533H152.6
			c5.12,0,8.533,3.413,8.533,8.533v34.133C161.133,46.787,157.72,50.2,152.6,50.2z M50.2,33.133h93.867V16.067H50.2V33.133z"/>
		<path style="fill:#0C0C0C;" d="M468.333,50.2H357.4c-5.12,0-8.533-3.413-8.533-8.533V7.533c0-5.12,3.413-8.533,8.533-8.533
			h110.933c5.12,0,8.533,3.413,8.533,8.533v34.133C476.867,46.787,473.453,50.2,468.333,50.2z M365.933,33.133H459.8V16.067h-93.867
			V33.133z"/>
		<path style="fill:#0C0C0C;" d="M101.4,255c0-5.12-3.413-8.533-8.533-8.533s-8.533,3.413-8.533,8.533s3.413,8.533,8.533,8.533
			S101.4,260.12,101.4,255"/>
		<path style="fill:#0C0C0C;" d="M263.533,272.067c0-5.12-3.413-8.533-8.533-8.533s-8.533,3.413-8.533,8.533S249.88,280.6,255,280.6
			S263.533,277.187,263.533,272.067"/>
		<path style="fill:#0C0C0C;" d="M425.667,255c0-5.12-3.413-8.533-8.533-8.533S408.6,249.88,408.6,255s3.413,8.533,8.533,8.533
			S425.667,260.12,425.667,255"/>
	</g>
</g>
<g>
</g>
<g>
</g>
<g>
</g>
<g>
</g>
<g>
</g>
<g>
</g>
<g>
</g>
<g>
</g>
<g>
</g>
<g>
</g>
<g>
</g>
<g>
</g>
<g>
</g>
<g>
</g>
<g>
</g>
</svg>
